<svg xmlns="http://www.w3.org/2000/svg" viewBox="0 0 512 512"><path fill="#000000" fill-rule="evenodd" d="M 203.76,67.45 L 197.21,69.88 L 190.90,72.31 L 184.82,74.74 L 178.97,77.16 L 173.34,79.59 L 167.95,82.02 L 162.78,84.45 L 157.84,86.87 L 153.12,89.30 L 148.64,91.73 L 144.39,94.15 L 140.36,96.58 L 136.56,99.01 L 132.99,101.44 L 129.65,103.86 L 126.54,106.29 L 123.65,108.72 L 120.83,111.17 L 118.06,113.63 L 115.36,116.11 L 112.71,118.61 L 110.11,121.12 L 107.59,123.66 L 105.12,126.21 L 102.70,128.78 L 100.35,131.37 L 98.05,133.97 L 95.81,136.60 L 93.64,139.24 L 91.52,141.90 L 89.46,144.57 L 87.46,147.27 L 85.52,149.98 L 83.89,152.65 L 82.59,155.28 L 81.61,157.87 L 80.95,160.41 L 80.60,162.91 L 80.58,165.36 L 80.87,167.78 L 81.48,170.14 L 82.42,172.47 L 83.67,174.76 L 85.24,177.00 L 87.13,179.20 L 89.34,181.35 L 91.87,183.47 L 94.73,185.54 L 97.90,187.56 L 101.07,189.44 L 104.25,191.17 L 107.44,192.75 L 110.63,194.18 L 113.82,195.45 L 117.03,196.58 L 120.24,197.56 L 123.45,198.39 L 126.66,199.07 L 129.89,199.60 L 133.12,199.97 L 136.35,200.20 L 139.59,200.28 L 142.83,200.21 L 146.09,199.99 L 149.34,199.61 L 152.36,199.47 L 155.14,199.54 L 157.68,199.83 L 159.99,200.34 L 162.06,201.08 L 163.89,202.03 L 165.48,203.21 L 166.84,204.61 L 167.96,206.23 L 168.84,208.08 L 169.48,210.14 L 169.89,212.42 L 170.06,214.93 L 169.99,217.66 L 169.69,220.60 L 169.15,223.77 L 168.71,226.92 L 168.39,230.05 L 168.17,233.16 L 168.06,236.26 L 168.06,239.33 L 168.18,242.38 L 168.40,245.41 L 168.72,248.42 L 169.16,251.42 L 169.71,254.39 L 170.36,257.35 L 171.13,260.28 L 172.00,263.20 L 172.98,266.09 L 174.07,268.97 L 175.27,271.82 L 176.63,274.63 L 178.15,277.40 L 179.83,280.12 L 181.68,282.80 L 183.68,285.43 L 185.84,288.02 L 188.16,290.56 L 190.65,293.06 L 193.29,295.51 L 196.10,297.92 L 199.07,300.29 L 202.19,302.61 L 205.48,304.88 L 208.93,307.11 L 212.54,309.30 L 216.30,311.44 L 220.06,313.52 L 223.79,315.52 L 227.50,317.45 L 231.19,319.31 L 234.86,321.11 L 238.51,322.83 L 242.14,324.49 L 245.76,326.07 L 249.35,327.59 L 252.92,329.03 L 256.48,330.41 L 260.01,331.71 L 263.52,332.95 L 267.02,334.12 L 270.49,335.22 L 273.95,336.24 L 277.22,337.16 L 280.31,337.96 L 283.22,338.65 L 285.95,339.23 L 288.50,339.70 L 290.86,340.05 L 293.04,340.29 L 295.04,340.42 L 296.85,340.44 L 298.49,340.34 L 299.94,340.13 L 301.21,339.81 L 302.30,339.38 L 303.21,338.83 L 303.93,338.17 L 304.47,337.40 L 305.07,336.79 L 305.73,336.35 L 306.43,336.06 L 307.20,335.94 L 308.02,335.98 L 308.89,336.19 L 309.82,336.55 L 310.81,337.08 L 311.85,337.77 L 312.94,338.62 L 314.10,339.64 L 315.30,340.82 L 316.56,342.16 L 317.88,343.66 L 319.25,345.33 L 320.68,347.15 L 322.01,348.96 L 323.24,350.74 L 324.36,352.51 L 325.39,354.25 L 326.32,355.97 L 327.15,357.67 L 327.88,359.35 L 328.51,361.00 L 329.03,362.64 L 329.46,364.25 L 329.79,365.84 L 330.02,367.41 L 330.15,368.96 L 330.17,370.49 L 330.11,372.00 L 329.93,373.48 L 329.68,374.94 L 329.34,376.37 L 328.93,377.77 L 328.43,379.14 L 327.84,380.48 L 327.18,381.79 L 326.44,383.07 L 325.60,384.34 L 324.70,385.56 L 323.70,386.76 L 322.63,387.93 L 321.47,389.07 L 320.24,390.19 L 318.92,391.27 L 317.51,392.33 L 316.03,393.35 L 314.23,394.28 L 312.13,395.10 L 309.71,395.81 L 306.98,396.42 L 303.94,396.92 L 300.59,397.32 L 296.93,397.60 L 292.97,397.79 L 288.69,397.87 L 284.10,397.85 L 279.20,397.71 L 273.98,397.48 L 268.46,397.14 L 262.63,396.69 L 256.48,396.14 L 250.03,395.48 L 243.72,394.97 L 237.55,394.59 L 231.51,394.35 L 225.62,394.25 L 219.88,394.29 L 214.27,394.47 L 208.80,394.79 L 203.48,395.24 L 198.29,395.84 L 193.25,396.57 L 188.35,397.45 L 183.59,398.46 L 178.96,399.61 L 174.48,400.91 L 170.14,402.34 L 165.95,403.91 L 162.50,405.55 L 159.80,407.28 L 157.85,409.07 L 156.65,410.94 L 156.20,412.89 L 156.50,414.91 L 157.55,417.00 L 159.35,419.17 L 161.90,421.42 L 165.20,423.74 L 169.24,426.13 L 174.04,428.61 L 179.59,431.15 L 185.89,433.77 L 192.93,436.46 L 200.73,439.23 L 208.28,441.84 L 215.58,444.29 L 222.63,446.57 L 229.43,448.69 L 235.99,450.65 L 242.29,452.44 L 248.36,454.08 L 254.16,455.54 L 259.73,456.86 L 265.04,458.00 L 270.11,458.98 L 274.93,459.80 L 279.50,460.47 L 283.82,460.96 L 287.90,461.29 L 291.73,461.47 L 295.48,461.56 L 299.16,461.57 L 302.76,461.51 L 306.30,461.37 L 309.76,461.14 L 313.15,460.84 L 316.46,460.47 L 319.70,460.01 L 322.87,459.47 L 325.97,458.86 L 328.99,458.17 L 331.94,457.39 L 334.81,456.54 L 337.61,455.62 L 340.34,454.61 L 343.00,453.52 L 345.59,452.40 L 348.11,451.23 L 350.57,450.01 L 352.96,448.76 L 355.29,447.46 L 357.55,446.11 L 359.74,444.73 L 361.87,443.30 L 363.93,441.83 L 365.92,440.32 L 367.85,438.76 L 369.71,437.16 L 371.51,435.52 L 373.25,433.84 L 374.91,432.11 L 376.51,430.34 L 378.05,428.55 L 379.52,426.76 L 380.94,424.95 L 382.30,423.13 L 383.60,421.30 L 384.83,419.45 L 386.00,417.59 L 387.12,415.73 L 388.17,413.84 L 389.17,411.95 L 390.09,410.04 L 390.97,408.12 L 391.77,406.18 L 392.52,404.24 L 393.21,402.28 L 393.84,400.31 L 394.41,398.31 L 394.92,396.27 L 395.37,394.20 L 395.75,392.09 L 396.07,389.95 L 396.34,387.78 L 396.54,385.57 L 396.69,383.33 L 396.77,381.05 L 396.79,378.74 L 396.75,376.40 L 396.65,374.02 L 396.49,371.61 L 396.27,369.17 L 395.99,366.69 L 395.64,364.17 L 395.21,361.68 L 394.70,359.21 L 394.11,356.76 L 393.43,354.34 L 392.67,351.93 L 391.82,349.54 L 390.89,347.18 L 389.88,344.84 L 388.78,342.52 L 387.60,340.22 L 386.34,337.94 L 384.98,335.69 L 383.55,333.45 L 382.04,331.24 L 380.43,329.05 L 378.75,326.88 L 376.98,324.75 L 375.13,322.66 L 373.21,320.61 L 371.19,318.61 L 369.09,316.64 L 366.92,314.72 L 364.66,312.83 L 362.32,310.99 L 359.89,309.19 L 357.39,307.43 L 354.80,305.71 L 352.13,304.03 L 349.38,302.40 L 346.54,300.80 L 343.63,299.25 L 340.63,297.73 L 337.58,296.25 L 334.49,294.78 L 331.35,293.34 L 328.17,291.93 L 324.94,290.54 L 321.66,289.18 L 318.34,287.84 L 314.97,286.53 L 311.56,285.24 L 308.09,283.98 L 304.58,282.74 L 301.03,281.52 L 297.42,280.33 L 293.78,279.17 L 290.08,278.03 L 286.34,276.92 L 282.83,276.00 L 279.57,275.28 L 276.53,274.76 L 273.73,274.43 L 271.17,274.29 L 268.84,274.36 L 266.75,274.62 L 264.90,275.08 L 263.27,275.73 L 261.89,276.58 L 260.74,277.63 L 259.83,278.87 L 259.15,280.31 L 258.70,281.94 L 258.50,283.77 L 258.53,285.80 L 258.45,287.60 L 258.28,289.16 L 257.99,290.49 L 257.61,291.59 L 257.12,292.46 L 256.53,293.09 L 255.83,293.49 L 255.03,293.67 L 254.13,293.60 L 253.12,293.31 L 252.01,292.79 L 250.80,292.03 L 249.48,291.04 L 248.06,289.82 L 246.53,288.37 L 244.91,286.69 L 243.36,284.99 L 241.91,283.28 L 240.54,281.56 L 239.25,279.84 L 238.05,278.10 L 236.94,276.35 L 235.91,274.59 L 234.97,272.82 L 234.11,271.04 L 233.34,269.25 L 232.66,267.45 L 232.05,265.63 L 231.54,263.81 L 231.11,261.97 L 230.77,260.13 L 230.51,258.27 L 230.32,256.46 L 230.20,254.68 L 230.14,252.96 L 230.14,251.28 L 230.22,249.63 L 230.36,248.03 L 230.56,246.48 L 230.83,244.96 L 231.17,243.49 L 231.57,242.06 L 232.04,240.68 L 232.58,239.34 L 233.18,238.04 L 233.85,236.78 L 234.58,235.57 L 235.38,234.40 L 236.23,233.26 L 237.13,232.14 L 238.08,231.06 L 239.08,230.00 L 240.13,228.97 L 241.23,227.97 L 242.38,227.00 L 243.58,226.06 L 244.83,225.15 L 246.13,224.26 L 247.47,223.40 L 248.88,222.57 L 250.33,221.77 L 251.82,221.01 L 253.37,220.26 L 254.97,219.55 L 256.89,218.91 L 259.13,218.36 L 261.69,217.88 L 264.56,217.48 L 267.76,217.15 L 271.27,216.91 L 275.11,216.75 L 279.27,216.67 L 283.74,216.66 L 288.54,216.73 L 293.65,216.88 L 299.08,217.11 L 304.83,217.41 L 310.91,217.80 L 317.30,218.26 L 324.01,218.80 L 330.52,219.23 L 336.84,219.54 L 342.95,219.74 L 348.87,219.81 L 354.59,219.78 L 360.11,219.63 L 365.44,219.36 L 370.56,218.97 L 375.49,218.47 L 380.22,217.85 L 384.75,217.12 L 389.08,216.27 L 393.22,215.30 L 397.16,214.22 L 400.89,213.02 L 404.44,211.71 L 407.79,210.44 L 410.96,209.20 L 413.95,208.02 L 416.74,206.86 L 419.36,205.76 L 421.78,204.69 L 424.03,203.66 L 426.08,202.68 L 427.95,201.73 L 429.64,200.83 L 431.14,199.97 L 432.45,199.15 L 433.58,198.37 L 434.52,197.63 L 435.28,196.93 L 435.85,196.27 L 436.04,195.53 L 435.86,194.71 L 435.30,193.80 L 434.37,192.81 L 433.06,191.73 L 431.37,190.57 L 429.30,189.33 L 426.86,188.00 L 424.05,186.59 L 420.85,185.09 L 417.28,183.51 L 413.33,181.85 L 409.00,180.10 L 404.30,178.27 L 399.23,176.36 L 393.77,174.36 L 388.78,172.44 L 384.24,170.60 L 380.16,168.84 L 376.54,167.16 L 373.38,165.56 L 370.68,164.05 L 368.44,162.61 L 366.65,161.26 L 365.32,159.98 L 364.46,158.78 L 364.05,157.67 L 364.10,156.63 L 364.61,155.68 L 365.58,154.80 L 367.00,154.01 L 368.88,153.30 L 370.86,152.45 L 372.93,151.46 L 375.08,150.33 L 377.33,149.07 L 379.68,147.66 L 382.11,146.13 L 384.63,144.45 L 387.24,142.64 L 389.94,140.69 L 392.74,138.60 L 395.63,136.37 L 398.60,134.01 L 401.67,131.51 L 404.83,128.87 L 408.08,126.10 L 411.42,123.18 L 414.21,120.28 L 416.47,117.38 L 418.16,114.49 L 419.32,111.60 L 419.93,108.73 L 420.00,105.86 L 419.52,102.99 L 418.48,100.14 L 416.91,97.29 L 414.79,94.45 L 412.12,91.61 L 408.91,88.79 L 405.16,85.97 L 400.85,83.15 L 396.00,80.35 L 390.60,77.55 L 385.16,74.90 L 379.68,72.39 L 374.15,70.03 L 368.59,67.82 L 362.97,65.75 L 357.32,63.83 L 351.62,62.06 L 345.88,60.43 L 340.10,58.95 L 334.27,57.61 L 328.41,56.42 L 322.49,55.38 L 316.54,54.49 L 310.55,53.74 L 304.51,53.13 L 298.42,52.68 L 292.31,52.40 L 286.17,52.30 L 280.00,52.39 L 273.81,52.65 L 267.58,53.10 L 261.33,53.72 L 255.05,54.53 L 248.73,55.51 L 242.39,56.67 L 236.02,58.02 L 229.63,59.55 L 223.20,61.25 L 216.75,63.14 L 210.27,65.21 Z"></path></svg>